# xmcd
#
# Track frame offsets:
#	150
#	12531
#	27108
#	37424
#	48948
#	57041
#	66629
#	80006
#	89568
#	100528
#	110331
#	120671
#	132765
#	142336
#	155570
#	166964
#
# Disc length: 2390 seconds
# Revision: 1
# Processed by: cddbd v1.5.2PL0 Copyright (c) Steve Scherf et al.
# Submitted via: dBpowerAMP V12.0
#
DISCID=e2095410
DTITLE=Stones River Ranch Boys - Down Home Instrumentals, Vol. 2
DYEAR=2002
DGENRE=Country
TTITLE0=Orange Blossom Special
TTITLE1=Storm On The Ocean
TTITLE2=In The Pines
TTITLE3=Blues Stay Away From Me
TTITLE4=Old Joe Clark
TTITLE5=Dixie
TTITLE6=I'll Be All Smiles Tonight
TTITLE7=There's A Tavern In The Town
TTITLE8=500 Miles From Home
TTITLE9=Cielito Lindo
TTITLE10=Yellow Rose Of Texas
TTITLE11=Long, Long Ago
TTITLE12=Piano Boogie
TTITLE13=Willow Garden
TTITLE14=Bully Of The Town
TTITLE15=When The Work's All Done
EXTD=
EXTT0=
EXTT1=
EXTT2=
EXTT3=
EXTT4=
EXTT5=
EXTT6=
EXTT7=
EXTT8=
EXTT9=
EXTT10=
EXTT11=
EXTT12=
EXTT13=
EXTT14=
EXTT15=
PLAYORDER=
